<svg width="410" height="116" viewBox="0 0 410 116" fill="none" xmlns="http://www.w3.org/2000/svg">
<path fill-rule="evenodd" clip-rule="evenodd" d="M72.4886 3.80412C114.557 15.0541 121.989 35.3723 112.102 72.4632C102.148 109.554 85.5795 123.395 43.5114 112.145C1.44319 100.895 -5.98862 80.5768 3.89774 43.4859C13.7841 6.39502 30.4886 -7.44588 72.4886 3.80412Z" fill="#45A1DA"/>
<path fill-rule="evenodd" clip-rule="evenodd" d="M47.0568 73.2272L85.0341 35.25C87.0113 33.2727 90.2159 33.2727 92.1932 35.25C94.1704 37.2273 94.1704 40.4318 92.1932 42.4091L50.6023 84C48.625 85.9773 45.4204 85.9773 43.4432 84L26.7386 67.2954C24.7614 65.3182 24.7614 62.1136 26.7386 60.1363C28.7159 58.1591 31.9204 58.1591 33.8977 60.1363L47.0568 73.2272Z" fill="white"/>
<path d="M141.579 97C140.016 97 138.43 96.6873 136.822 96.062C135.214 95.4367 133.762 94.521 132.467 93.315C131.216 92.109 130.301 90.6573 129.72 88.96C129.318 87.8433 129.028 86.4587 128.849 84.806C128.67 83.1533 128.536 81.389 128.447 79.513C128.402 77.637 128.38 75.8057 128.38 74.019C126.638 73.9743 124.963 73.818 123.355 73.55C121.792 73.282 120.496 72.7907 119.469 72.076C118.486 71.3167 117.995 70.2223 117.995 68.793C117.995 67.051 118.464 65.7557 119.402 64.907C120.34 64.0137 121.591 63.433 123.154 63.165C124.762 62.8523 126.504 62.6737 128.38 62.629C128.425 61.2443 128.536 59.8373 128.715 58.408C128.938 56.934 129.296 55.5717 129.787 54.321C130.278 53.0703 130.971 52.0653 131.864 51.306C132.757 50.502 133.919 50.1 135.348 50.1C137.269 50.1 138.653 50.703 139.502 51.909C140.395 53.115 140.954 54.6783 141.177 56.599C141.4 58.5197 141.49 60.5297 141.445 62.629C143.768 62.5843 145.822 62.6737 147.609 62.897C149.396 63.1203 150.803 63.6117 151.83 64.371C152.857 65.1303 153.371 66.3363 153.371 67.989C153.371 69.6863 152.79 70.9593 151.629 71.808C150.468 72.6567 148.949 73.2373 147.073 73.55C145.197 73.818 143.209 73.9743 141.11 74.019C141.11 74.8677 141.088 75.761 141.043 76.699C141.043 77.5923 141.043 78.508 141.043 79.446C141.043 81.992 141.222 83.801 141.579 84.873C141.847 85.677 142.204 86.1907 142.651 86.414C143.142 86.6373 143.745 86.7713 144.46 86.816C145.175 86.816 146.046 86.95 147.073 87.218C148.1 87.4413 148.904 87.9997 149.485 88.893C150.066 89.7417 150.356 90.836 150.356 92.176C150.356 93.6947 149.552 94.8783 147.944 95.727C146.381 96.5757 144.259 97 141.579 97ZM166.104 97C163.915 97 161.905 96.665 160.074 95.995C158.287 95.325 156.858 94.32 155.786 92.98C154.714 91.5953 154.178 89.8533 154.178 87.754C154.178 85.9673 154.714 84.4487 155.786 83.198C156.858 81.9473 158.287 80.987 160.074 80.317C161.905 79.647 163.915 79.312 166.104 79.312C167.399 79.312 168.583 79.4237 169.655 79.647C170.727 79.8257 171.464 80.049 171.866 80.317C171.866 79.2897 171.442 78.3963 170.593 77.637C169.744 76.833 168.27 76.431 166.171 76.431C165.188 76.431 164.407 76.5203 163.826 76.699C163.29 76.833 162.799 77.0117 162.352 77.235C161.905 77.4583 161.392 77.6593 160.811 77.838C160.275 77.972 159.538 78.039 158.6 78.039C157.215 78.039 156.099 77.6817 155.25 76.967C154.446 76.2077 154.044 75.0687 154.044 73.55C154.044 72.1653 154.424 70.9817 155.183 69.999C155.987 68.9717 157.014 68.123 158.265 67.453C159.516 66.783 160.856 66.2917 162.285 65.979C163.759 65.6663 165.166 65.51 166.506 65.51C170.481 65.51 173.72 66.247 176.221 67.721C178.722 69.1503 180.576 71.0263 181.782 73.349C182.988 75.6717 183.591 78.1953 183.591 80.92C183.591 82.4387 183.457 83.8457 183.189 85.141C182.966 86.4363 182.653 87.4413 182.251 88.156C182.876 88.692 183.345 89.3173 183.658 90.032C184.015 90.7467 184.194 91.4837 184.194 92.243C184.194 93.4937 183.77 94.6103 182.921 95.593C182.117 96.531 180.956 97 179.437 97C178.276 97 177.36 96.8213 176.69 96.464C176.02 96.1067 175.35 95.6377 174.68 95.057C173.608 95.6823 172.424 96.1737 171.129 96.531C169.834 96.8437 168.159 97 166.104 97ZM167.444 90.233C168.471 90.233 169.231 90.032 169.722 89.63C170.258 89.1833 170.526 88.692 170.526 88.156C170.526 87.62 170.258 87.151 169.722 86.749C169.231 86.3023 168.471 86.079 167.444 86.079C166.461 86.079 165.702 86.3023 165.166 86.749C164.63 87.151 164.362 87.62 164.362 88.156C164.362 88.692 164.63 89.1833 165.166 89.63C165.702 90.032 166.461 90.233 167.444 90.233ZM199.1 97C195.169 97 192.042 96.3523 189.72 95.057C187.397 93.7617 186.236 92.0867 186.236 90.032C186.236 88.6027 186.705 87.553 187.643 86.883C188.625 86.1683 189.787 85.811 191.127 85.811C192.199 85.811 192.98 85.9897 193.472 86.347C194.008 86.7043 194.477 87.0617 194.879 87.419C195.281 87.7763 195.772 87.955 196.353 87.955C197.291 87.955 197.76 87.62 197.76 86.95C197.76 86.0567 197.224 85.409 196.152 85.007C195.124 84.605 193.829 84.0467 192.266 83.332C190.122 82.3047 188.581 81.121 187.643 79.781C186.705 78.3963 186.236 76.9893 186.236 75.56C186.236 73.8627 186.839 72.2547 188.045 70.736C189.251 69.2173 190.948 67.9667 193.137 66.984C195.37 66.0013 198.028 65.51 201.11 65.51C203.7 65.51 206.023 65.8673 208.078 66.582C210.132 67.2967 211.763 68.2793 212.969 69.53C214.175 70.736 214.778 72.076 214.778 73.55C214.778 74.9347 214.331 75.9843 213.438 76.699C212.544 77.4137 211.383 77.771 209.954 77.771C209.15 77.771 208.502 77.6593 208.011 77.436C207.564 77.168 207.14 76.9223 206.738 76.699C206.38 76.4757 205.867 76.364 205.197 76.364C204.839 76.364 204.527 76.498 204.259 76.766C203.991 76.9893 203.857 77.2797 203.857 77.637C203.857 77.905 203.968 78.173 204.192 78.441C204.415 78.709 204.795 78.9323 205.331 79.111C206.715 79.5577 208.055 80.1383 209.351 80.853C210.691 81.523 211.785 82.4163 212.634 83.533C213.527 84.605 213.974 85.9897 213.974 87.687C213.974 90.5903 212.611 92.8683 209.887 94.521C207.162 96.1737 203.566 97 199.1 97ZM224.764 96.866C221.772 96.866 219.695 95.0347 218.533 91.372C217.372 87.6647 216.791 81.7017 216.791 73.483C216.791 68.8823 216.948 64.84 217.26 61.356C217.573 57.8273 218.288 55.0803 219.404 53.115C220.566 51.105 222.352 50.1 224.764 50.1C226.506 50.1 227.824 50.6137 228.717 51.641C229.655 52.6683 230.303 54.12 230.66 55.996C231.062 57.872 231.286 60.1053 231.33 62.696C231.375 65.2867 231.397 68.1453 231.397 71.272L231.598 71.138C233.832 69.6193 235.998 68.324 238.097 67.252C240.197 66.1353 242.117 65.577 243.859 65.577C245.155 65.577 246.227 65.8897 247.075 66.515C247.969 67.0957 248.639 67.855 249.085 68.793C249.532 69.6863 249.755 70.602 249.755 71.54C249.755 73.2373 249.152 74.7783 247.946 76.163C246.74 77.5477 245.177 78.9547 243.256 80.384C243.792 81.054 244.306 81.791 244.797 82.595C245.333 83.3543 245.892 84.203 246.472 85.141C247.232 86.3023 247.857 87.5083 248.348 88.759C248.84 90.0097 249.085 91.1487 249.085 92.176C249.085 93.382 248.795 94.3423 248.214 95.057C247.634 95.727 246.919 96.2183 246.07 96.531C245.222 96.799 244.373 96.9107 243.524 96.866C242.229 96.7767 240.934 96.1513 239.638 94.99C238.343 93.8287 237.092 92.4663 235.886 90.903C235.35 90.233 234.814 89.5407 234.278 88.826C233.787 88.0667 233.318 87.3297 232.871 86.615C232.201 86.883 231.554 87.1063 230.928 87.285C230.616 90.5903 229.99 93.0247 229.052 94.588C228.159 96.1067 226.73 96.866 224.764 96.866ZM289.205 96.866C287.507 96.866 286.145 96.263 285.118 95.057C284.09 93.851 283.309 92.1983 282.773 90.099C282.281 87.955 281.946 85.476 281.768 82.662C279.043 82.4387 276.921 81.9027 275.403 81.054C273.929 80.2053 273.192 78.7313 273.192 76.632C273.192 74.5327 273.929 73.0587 275.403 72.21C276.921 71.3167 279.043 70.736 281.768 70.468C281.991 66.4927 282.594 62.964 283.577 59.882C284.604 56.8 286.257 54.4103 288.535 52.713C290.813 50.971 294.006 50.1 298.116 50.1C300.394 50.1 302.381 50.636 304.079 51.708C305.821 52.78 306.692 54.455 306.692 56.733C306.692 59.1003 305.932 60.8423 304.414 61.959C302.94 63.031 301.153 63.768 299.054 64.17C297.401 64.4827 296.24 65.2197 295.57 66.381C294.9 67.4977 294.475 68.8153 294.297 70.334C298.317 70.4233 301.376 70.8477 303.476 71.607C305.62 72.3663 306.692 74.0413 306.692 76.632C306.692 78.3293 306.2 79.6247 305.218 80.518C304.235 81.3667 302.806 81.9473 300.93 82.26C299.098 82.5727 296.932 82.7513 294.431 82.796C294.431 84.5827 294.453 86.213 294.498 87.687C294.542 89.1163 294.565 90.434 294.565 91.64C294.565 93.0693 294.274 94.1637 293.694 94.923C293.113 95.6823 292.398 96.196 291.55 96.464C290.746 96.732 289.964 96.866 289.205 96.866ZM317.345 96.866C315.067 96.866 313.369 96.0173 312.253 94.32C311.136 92.578 310.399 89.9873 310.042 86.548C309.684 83.064 309.506 78.709 309.506 73.483C309.506 70.0437 309.55 66.8947 309.64 64.036C309.774 61.1773 310.086 58.7207 310.578 56.666C311.069 54.5667 311.851 52.9587 312.923 51.842C313.995 50.6807 315.491 50.1 317.412 50.1C319.332 50.1 320.829 50.6807 321.901 51.842C322.973 52.9587 323.754 54.5667 324.246 56.666C324.737 58.7207 325.027 61.1773 325.117 64.036C325.251 66.8947 325.318 70.0437 325.318 73.483C325.318 81.3443 324.759 87.218 323.643 91.104C322.571 94.9453 320.471 96.866 317.345 96.866ZM345.426 97.067C342.121 97.1117 339.217 96.4417 336.716 95.057C334.259 93.6277 332.316 91.707 330.887 89.295C329.502 86.8383 328.765 84.136 328.676 81.188C328.631 78.1507 329.324 75.4707 330.753 73.148C332.182 70.7807 334.17 68.9047 336.716 67.52C339.262 66.1353 342.165 65.443 345.426 65.443C348.642 65.3983 351.478 66.0683 353.935 67.453C356.436 68.8377 358.424 70.7137 359.898 73.081C361.372 75.4483 362.154 78.1507 362.243 81.188C362.288 84.0913 361.595 86.749 360.166 89.161C358.737 91.5283 356.749 93.4267 354.203 94.856C351.657 96.2407 348.731 96.9777 345.426 97.067ZM345.627 87.285C346.833 87.285 347.883 86.816 348.776 85.878C349.669 84.94 350.116 83.8457 350.116 82.595C350.116 81.3443 349.669 80.2723 348.776 79.379C347.883 78.441 346.833 77.972 345.627 77.972C344.421 77.972 343.371 78.441 342.478 79.379C341.585 80.2723 341.138 81.3443 341.138 82.595C341.138 83.8457 341.585 84.94 342.478 85.878C343.371 86.816 344.421 87.285 345.627 87.285ZM377.134 97.067C374.498 97.067 372.22 96.3747 370.3 94.99C368.379 93.6053 366.883 91.6847 365.811 89.228C364.783 86.7267 364.27 83.8457 364.27 80.585C364.27 78.977 364.404 77.302 364.672 75.56C364.984 73.7733 365.431 72.1207 366.012 70.602C366.637 69.0833 367.441 67.855 368.424 66.917C369.451 65.9343 370.679 65.443 372.109 65.443C373.806 65.443 375.079 66.0013 375.928 67.118C376.821 68.19 377.268 69.6193 377.268 71.406C377.268 72.21 377.134 73.148 376.866 74.22C376.642 75.292 376.397 76.3863 376.129 77.503C375.905 78.575 375.794 79.5577 375.794 80.451C375.794 81.8803 375.928 82.9523 376.196 83.667C376.508 84.3817 377.178 84.739 378.206 84.739C379.278 84.739 379.97 84.1807 380.283 83.064C380.64 81.9027 380.796 80.4287 380.752 78.642C380.752 76.8107 380.752 74.9347 380.752 73.014C380.752 71.5847 381.131 70.3117 381.891 69.195C382.695 68.0337 383.99 67.453 385.777 67.453C387.608 67.453 388.926 68.0337 389.73 69.195C390.578 70.3117 391.003 71.5847 391.003 73.014C391.003 74.9347 390.958 76.8107 390.869 78.642C390.824 80.4287 390.958 81.9027 391.271 83.064C391.628 84.1807 392.41 84.739 393.616 84.739C395.715 84.739 396.765 83.3097 396.765 80.451C396.765 79.5577 396.586 78.575 396.229 77.503C395.916 76.3863 395.581 75.292 395.224 74.22C394.866 73.1033 394.688 72.1207 394.688 71.272C394.688 67.4307 396.296 65.51 399.512 65.51C400.941 65.51 402.147 65.979 403.13 66.917C404.157 67.855 404.961 69.0833 405.542 70.602C406.167 72.1207 406.614 73.751 406.882 75.493C407.194 77.235 407.351 78.91 407.351 80.518C407.351 85.476 406.189 89.4513 403.867 92.444C401.589 95.392 398.462 96.866 394.487 96.866C392.7 96.866 391.047 96.531 389.529 95.861C388.01 95.1463 386.759 94.2307 385.777 93.114C384.794 94.2307 383.566 95.1687 382.092 95.928C380.618 96.6873 378.965 97.067 377.134 97.067Z" fill="#333333"/>
</svg>
